inDegrees=no
num_controls=7
num_derivatives=13
num_iterations=132
num_multipliers=7
num_parameters=0
num_slacks=7
num_states=26
objective=0.464324
objective_accelerations=0.062174
objective_balance=0.004047
objective_effort=0.050966
objective_height=0.341461
objective_ligament=0.005677
solver_duration=1819.614758
status=Solve_Succeeded
success=true
DataType=double
version=3
OpenSimVersion=4.5
endheader
time	/jointset/ground_pelvis/pelvis_tilt/value	/jointset/ground_pelvis/pelvis_tx/value	/jointset/ground_pelvis/pelvis_ty/value	/jointset/hip_l/hip_flexion_l/value	/jointset/hip_l/hip_adduction_l/value	/jointset/hip_l/hip_rotation_l/value	/jointset/back/lumbar_extension/value	/jointset/patellofemoral_l/patellar_flexion_l/value	/jointset/knee_l/knee_flexion_l/value	/jointset/knee_l/knee_adduction_l/value	/jointset/knee_l/knee_rotation_l/value	/jointset/ankle_l/ankle_angle_l/value	/jointset/subtalar_l/subtalar_angle_l/value	/jointset/ground_pelvis/pelvis_tilt/speed	/jointset/ground_pelvis/pelvis_tx/speed	/jointset/ground_pelvis/pelvis_ty/speed	/jointset/hip_l/hip_flexion_l/speed	/jointset/hip_l/hip_adduction_l/speed	/jointset/hip_l/hip_rotation_l/speed	/jointset/back/lumbar_extension/speed	/jointset/patellofemoral_l/patellar_flexion_l/speed	/jointset/knee_l/knee_flexion_l/speed	/jointset/knee_l/knee_adduction_l/speed	/jointset/knee_l/knee_rotation_l/speed	/jointset/ankle_l/ankle_angle_l/speed	/jointset/subtalar_l/subtalar_angle_l/speed	/forceset/tau_hip_flexion_l	/forceset/tau_hip_adduction_l	/forceset/tau_hip_rotation_l	/forceset/tau_knee_flexion_l	/forceset/tau_ankle_angle_l	/forceset/tau_subtalar_angle_l	/forceset/tau_lumbar_extension	lambda_cid13_p0	lambda_cid13_p1	lambda_cid13_p2	lambda_cid13_p3	lambda_cid13_p4	lambda_cid13_p5	lambda_cid14_p0	/jointset/ground_pelvis/pelvis_tilt/accel	/jointset/ground_pelvis/pelvis_tx/accel	/jointset/ground_pelvis/pelvis_ty/accel	/jointset/hip_l/hip_flexion_l/accel	/jointset/hip_l/hip_adduction_l/accel	/jointset/hip_l/hip_rotation_l/accel	/jointset/back/lumbar_extension/accel	/jointset/patellofemoral_l/patellar_flexion_l/accel	/jointset/knee_l/knee_flexion_l/accel	/jointset/knee_l/knee_adduction_l/accel	/jointset/knee_l/knee_rotation_l/accel	/jointset/ankle_l/ankle_angle_l/accel	/jointset/subtalar_l/subtalar_angle_l/accel	gamma_cid13_p0	gamma_cid13_p1	gamma_cid13_p2	gamma_cid13_p3	gamma_cid13_p4	gamma_cid13_p5	gamma_cid14_p0
1.5	-0.03642828770304942	-0.03656774923043555	0.8010628813366028	0.9059041649839125	-0.3129067519807473	-0.1005517983589612	-0.8204881082334631	0.9913906163005252	0.9913906163005317	-0.03220733590589358	-0.17453253182188	0.1995202567721188	0.05328139064210644	0.4077884071803691	0.2451769969857034	0.6614376754582807	-2.600046850497015	0.04832445990407427	-0.6449255997879323	0.8166659639772302	-2.561253049861601	-2.561253049861725	-0.3409501533220792	-0.0001433854721892283	-0.5315640653533626	-0.1494957770260377	-0.2311435734957974	0.02011865946207772	-0.01008051046887955	-0.265952899809369	0.08629543520835385	0.04108691686591876	0.3013734725943155	-13.02758896690177	-15.6875947621593	2.189028289912998	-14.73496817302226	-656.5022638262923	-69.44053467098446	-6.810498579260892	0.4317018742736629	0.9764110394944095	-0.9160843828343204	-1.037145341494838	0.4246695153907484	-0.6281419780942878	2.382943979138932	-1.375133683663227	-1.375133683663259	-0.2301731565061208	0.07968811087888472	-0.83578930119171	0.2797566494492872	4.52860443632257e-07	2.695255843765804e-06	-1.23235340675336e-06	2.120950836000753e-07	5.61383270030644e-07	6.984937276679674e-07	4.817859170597017e-07
1.51	-0.03232922618602087	-0.03406733586580235	0.8076301105700662	0.8798539689736246	-0.3124036066205361	-0.1070330096539575	-0.8122037289152906	0.9657120932057049	0.9657120932057237	-0.0356301466420356	-0.174532591830578	0.1941634764704701	0.05179899236488758	0.4119395811215623	0.2548826424369365	0.6518663378987195	-2.60967548676861	0.05231579389729208	-0.6512481569114844	0.8401137964523702	-2.574117074166695	-2.574117074166773	-0.3436189269787262	0.0001595272974842977	-0.5396716554644545	-0.1469288960062591	-0.2224562821151077	0.01947197417306515	-0.01003604470082482	-0.2602461586752224	0.0864115408606678	0.04091255740174481	0.2928402892828314	-12.59877546630788	-15.87840180721479	2.43812883687557	-14.65741172997633	-649.6568565988264	-69.5326870882772	-7.846278567530479	0.3942086901125653	0.9642302965794393	-0.9988187941680841	-0.8781571199980842	0.3879316675654128	-0.6235526540071235	2.31128740090022	-1.191958568273569	-1.19195856826663	-0.2858180746580992	0.009596688585202878	-0.7800677272819757	0.2530952210918533	4.49590689327833e-07	2.757478512359319e-06	-1.20499401002563e-06	2.173918551069867e-07	5.692109609073517e-07	7.6520529999795e-07	4.806225358234016e-07
1.52	-0.02819117622236772	-0.03147054824692851	0.8140973943576036	0.8537169997306181	-0.3118602346551362	-0.1135752945350996	-0.8036877543685272	0.9399149455149691	0.939914945514995	-0.03907976283562945	-0.174528821945875	0.188729255495467	0.05034385117643646	0.4155860965055773	0.2644518478338301	0.6414485862731129	-2.617401497040451	0.05636978094163929	-0.6571403170158966	0.8629850096954618	-2.584977969045434	-2.584977969045466	-0.3463112448119398	0.0006225932100990268	-0.5470522000241083	-0.1440443592724938	-0.2137689907344234	0.01882528888403311	-0.009991578932807518	-0.2545394175410781	0.08652764651297705	0.04073819793754695	0.2843071059713463	-12.16746820884366	-16.07744608718948	2.697453532148961	-14.63691428590553	-642.7910489582328	-69.69924944337406	-8.924194627873643	0.3307701628379437	0.9491230286265615	-1.085367196043391	-0.6566201415437752	0.4372001256166116	-0.5420625742663291	2.26762013272926	-0.9745077983924549	-0.9745077983924433	-0.2348819918194363	0.1117187394670968	-0.6903801909040318	0.3432877922466173	4.249156661907324e-07	2.57150603272839e-06	-1.177212971893122e-06	1.904856103142419e-07	5.622564329382709e-07	7.563914428472388e-07	4.484382815446238e-07
1.53	-0.02401923161680762	-0.02877888359555343	0.8204563213427255	0.8275126237005477	-0.3112754782111762	-0.1201741582691618	-0.7949460025402876	0.914019512158588	0.9140195121585991	-0.04255552111077881	-0.1745186921219018	0.1832251087599494	0.04891987455276983	0.4187224555735733	0.2738449354270215	0.6302023142580584	-2.623136669309599	0.06060294121262767	-0.6626053056964003	0.8852522247158583	-2.593744965008346	-2.593744965008268	-0.348778025679911	0.001413348679990705	-0.5536411002005523	-0.1406803389867634	-0.2053428853743034	0.01891019068802966	-0.009997648336870953	-0.2484969963870469	0.08610094568432947	0.03990406022754889	0.2758880939891096	-11.96143890790433	-15.91809976925814	2.86262656905721	-14.30105078549305	-636.1454427555395	-69.14923166576595	-9.996307045231983	0.2930363403556693	0.9289989010660148	-1.164326185327901	-0.4813801373514309	0.4195521681323451	-0.5442884802609087	2.189302501129323	-0.7733045957897184	-0.7733045957734245	-0.2429256539180743	0.06403657312548981	-0.6226558614307433	0.3433855903847577	3.774975449189128e-07	2.121826208108993e-06	-1.148983939768038e-06	1.293636607031124e-07	5.395957974455401e-07	6.673318168732912e-07	3.832943496582138e-07
1.54	-0.01981832990825244	-0.02599436861296638	0.8266987718114787	0.8012610130742354	-0.310647754526445	-0.1268267861830991	-0.785984972498957	0.888047307022471	0.8880473070224632	-0.04605401709853735	-0.1745003982187542	0.1776591708365834	0.04753162342069019	0.4213775171045835	0.2830219140762235	0.6181532829993492	-2.626848416288792	0.06496322909531319	-0.6678931529896457	0.9068406523136381	-2.600332324993229	-2.600332324993043	-0.3508587873331673	0.002255409044890782	-0.5594104375936417	-0.1368992609550942	-0.196916780014189	0.0189950924920131	-0.01000371774096246	-0.2424545752330189	0.08567424485567672	0.03906992251752926	0.2674690820068718	-11.75423148296491	-15.75939822875306	3.028404141551565	-14.00965045380718	-629.5109912276145	-68.65058215951512	-11.0561495634938	0.2345106554407226	0.9059012398287196	-1.245919044774298	-0.2519350835526416	0.4626256479560181	-0.5066342968147001	2.131862648205875	-0.5385806027869683	-0.5385806027869879	-0.1576781488764865	0.1219797184687111	-0.5264676342330241	0.4266993414343567	4.636213155626443e-07	1.484384094174279e-06	-2.017524302631831e-06	-4.379230593272737e-08	6.535260665439237e-07	6.033053070336066e-07	3.996079752867972e-07
1.55	-0.01559326769470832	-0.02311915177194313	0.8328169087509163	0.7749819348848727	-0.3099764800333982	-0.1335271866346316	-0.7768117806050451	0.8620199556376963	0.8620199556376651	-0.04957563510222374	-0.1744712273492445	0.1720395441446469	0.04618232422219434	0.4235377197186485	0.291986172015579	0.6053534794962452	-2.628623944521675	0.06930489689843218	-0.6721583756850418	0.9276716530228453	-2.60476810217734	-2.604768102177334	-0.353396066280817	0.003591738209030632	-0.5643608053142545	-0.1328947942598947	-0.1879839677969333	0.01767507507422807	-0.009889203249360172	-0.2377661437395391	0.08652605517869935	0.03866271477966002	0.2588074741948305	-11.14980191255478	-15.86073374703933	3.241427475574024	-14.03222546751212	-623.403285156505	-68.89427300636723	-12.0977922670135	0.1922729669743867	0.8862929659726212	-1.314889700094361	-0.08876314061348396	0.4226058755039533	-0.3815253875511437	2.039807765316801	-0.34071300431254	-0.3407130043394735	-0.2915285798732021	0.1404414245372343	-0.4561947869258936	0.3977449809801475	7.03608570369937e-07	6.306071686371489e-07	-3.919298968417533e-06	-3.460309443579002e-07	9.248328126711915e-07	5.681213005660059e-07	5.097748737043897e-07
1.56	-0.01134950387450779	-0.02015537137252966	0.8388034719159199	0.7486954211236886	-0.3092612551565169	-0.1402692511394501	-0.7674340609074335	0.8359593191354625	0.8359593191354077	-0.05312058105781881	-0.1744284968062606	0.1663750390863139	0.04487515462013397	0.4251178384361188	0.3007346257542661	0.5918385281125076	-2.62833553065285	0.07375330586211748	-0.6762259636464029	0.9477462130536037	-2.606989348485026	-2.6069893484852	-0.355524377715028	0.004967343739193346	-0.5683861108728865	-0.1284733416679996	-0.17905115557968	0.01635505765643478	-0.009774688757743349	-0.2330777122460594	0.08737786550172008	0.03825550704178083	0.250145866382789	-10.54076462480193	-15.9577727285442	3.44794206422158	-14.12107502793394	-617.2639943130991	-69.23127207081248	-13.11652357960496	0.1184938761217518	0.8627403996951181	-1.388948620901031	0.1608533367889188	0.4839738800692426	-0.4671073500077485	1.980574512516113	-0.09567442750205332	-0.0956744275020535	-0.07588464618877412	0.1298349916732165	-0.3414552018368069	0.5100965207734647	8.274622850338218e-07	2.326816261708285e-07	-4.863962396574255e-06	-4.963819917474082e-07	1.084436798911951e-06	6.185925554216427e-07	5.641495222395597e-07
